<svg id="Layer_2" data-name="Layer 2" xmlns="http://www.w3.org/2000/svg" viewBox="0 0 91.69 91.89"><defs><style>.cls-1{fill:none;stroke:#383838;stroke-miterlimit:10;stroke-width:2px;}.cls-2{fill:#383838;}.cls-3{fill:red;}</style></defs><title>svg</title><path class="cls-1" d="M61,27.79A36.34,36.34,0,0,0,27.79,61" transform="translate(-18.07 -18.13)"/><path class="cls-1" d="M100.21,61A36.34,36.34,0,0,0,67,27.79" transform="translate(-18.07 -18.13)"/><path class="cls-1" d="M67,100.21A36.34,36.34,0,0,0,100.21,67" transform="translate(-18.07 -18.13)"/><path class="cls-1" d="M27.79,67A36.34,36.34,0,0,0,61,100.21" transform="translate(-18.07 -18.13)"/><rect class="cls-2" x="45.05" width="1.75" height="36.69"/><rect class="cls-2" x="90.54" y="45.66" width="1.75" height="36.69" transform="translate(137.34 -45.54) rotate(90)"/><rect class="cls-2" x="45.05" width="1.75" height="36.69"/><rect class="cls-2" x="35.54" y="45.66" width="1.75" height="36.69" transform="translate(-45.66 82.29) rotate(-90)"/><rect class="cls-2" x="63.12" y="73.32" width="1.75" height="36.69" transform="translate(109.93 165.21) rotate(180)"/><circle class="cls-3" cx="45.47" cy="46.33" r="2.57"/></svg>